<svg width="24" height="24" fill="none" xmlns="http://www.w3.org/2000/svg"><path d="M20.33 4.14a19.681 19.681 0 00-4.95-1.54 14.32 14.32 0 00-.634 1.304 18.35 18.35 0 00-5.488 0A13.888 13.888 0 008.615 2.6 19.616 19.616 0 003.66 4.145C.527 8.835-.323 13.41.102 17.919a19.867 19.867 0 006.073 3.083c.488-.667.925-1.375 1.3-2.122-.715-.27-1.4-.602-2.048-.988.172-.126.34-.258.502-.393 3.95 1.83 8.24 1.83 12.142 0 .164.136.332.267.502.393-.65.388-1.337.72-2.052.99.376.744.81 1.455 1.3 2.122a19.828 19.828 0 006.077-3.085c.498-5.227-.851-9.76-3.568-13.778zM8.013 15.147c-1.185 0-2.157-1.096-2.157-2.431s.951-2.434 2.157-2.434 2.179 1.097 2.158 2.434c.002 1.335-.952 2.43-2.158 2.43zm7.974 0c-1.186 0-2.158-1.096-2.158-2.431s.951-2.434 2.158-2.434c1.206 0 2.178 1.097 2.157 2.434 0 1.335-.951 2.43-2.157 2.43z" fill="#fff"/></svg>