<svg width="96" height="96" fill="none" xmlns="http://www.w3.org/2000/svg"><path d="M59.51 30.98l-7.07 14.141-1.92-1.2 4.124-16.496 4.866 3.555zm-6.92 16.889A3 3 0 0154 50.413v1.362a.45.45 0 01-.651.4L45 48v-2.25a.75.75 0 01.732-.75h1.408a3 3 0 011.59.456l3.86 2.413z" fill="#fff"/><path d="M39.254 45.127l2.241-1.495a5.25 5.25 0 012.913-.882h2.732c.67 0 1.33.128 1.947.375l1.837-18.363a5.994 5.994 0 00-6.464.395L26.483 38.292a6.075 6.075 0 00-2.188 6.77l6.867 21.253a6.025 6.025 0 005.727 4.185h22.222a6.025 6.025 0 005.727-4.185l5.402-16.717-11.74.652 13.186-5.128.019-.06a6.084 6.084 0 00-.812-5.37L56.048 48.97c.132.463.202.948.202 1.443v1.337h.576a3 3 0 011.32.306l3.63 1.78a5.25 5.25 0 012.685 6.329l-1.606 4.97a4.5 4.5 0 01-4.282 3.115h-4.03a5.25 5.25 0 01-1.843-.334L47.592 66h-2.126a5.25 5.25 0 01-4.309 2.25h-4.275a3.75 3.75 0 01-3.569-2.598l-2.852-8.833a3 3 0 011.576-3.636l4.713-2.221V48l-9.314-4.299a.75.75 0 01-.436-.68v-2.057a.75.75 0 01.415-.671l.75-.375a.75.75 0 01.67 0l10.419 5.209z" fill="#fff"/><path d="M39 51v.59a.3.3 0 00.17.27l.34.164a1.5 1.5 0 01.835 1.563L39.14 62.01a3 3 0 01-.848 1.697l-1.91 1.909a.224.224 0 00-.023.29c.164.061.34.094.522.094h4.275a3 3 0 002.91-2.272l1.803-7.21a3 3 0 00-1.801-3.49L39 51zm16.512 15h3.06c.977 0 1.841-.63 2.142-1.558l1.606-4.97a3 3 0 00-1.534-3.616l-3.63-1.78A.75.75 0 0057 54.02v.544a.3.3 0 00.166.269l.17.085a1.5 1.5 0 01.753 1.816l-2.477 7.43a1.5 1.5 0 01-.362.586l-.866.866a.225.225 0 00.16.384h.968zm-.92-19.416c.304.285.572.604.798.95l12.184-10.662-2.637-1.926-10.345 11.638zM48 54l6.137 2.455a1.5 1.5 0 01.848 1.92l-1.37 3.652a1.5 1.5 0 01-1.404.973H46.5l1.5-6a6.185 6.185 0 000-3z" fill="#fff"/></svg>