<svg version="1.2" xmlns="http://www.w3.org/2000/svg" viewBox="0 0 1000 1000" width="1000" height="1000">
	<path fill="#e02e2e" d="m0 0h1000v1000h-1000z"/>
	<path fill="#fff" d="m665.2 513.4h73.6l-49.2 131.6h-85.6l-65.6 152.8h-142.4l65.6-152.8h-37.6l-65.6 152.8h-146.8l65.6-152.8h-75.6l46.8-131.6h92q0-0.8 5.2-15.2l6.4-14.4h-92.8l44-136.8h105.6l61.2-144.8h142l-62 144.8h37.6l62.4-144.8h148.4l-64 144.8h61.2l-53.2 136.8h-65.6zm-116.8-43.2h-55.2q0 0.8-6 13.6-5.6 11.6-10.8 25.2-5.6 12.4-7.2 18h55.6q4.4-20.8 23.6-56.8z"/>
</svg>
