<svg version="1.2" xmlns="http://www.w3.org/2000/svg" viewBox="0 0 250 250" width="250" height="250">
	<title>MTB</title>
	<style>
		.s0 { fill: #ff0000 } 
		.s1 { fill: #ffffff } 
	</style>
	<path id="форма 1" class="s0" d="m0 0h250v250h-250z"/>
	<path id="#" fill-rule="evenodd" class="s1" d="m165.8 127.1h18.4l-12.3 32.9h-21.4l-16.4 38.2h-35.6l16.4-38.2h-9.4l-16.4 38.2h-36.7l16.4-38.2h-18.9l11.7-32.9h23q0-0.2 1.3-3.8l1.6-3.6h-23.2l11-34.2h26.4l15.3-36.2h35.5l-15.5 36.2h9.4l15.6-36.2h37.1l-16 36.2h15.3l-13.3 34.2h-16.4zm-29.2-10.8h-13.8q0 0.2-1.5 3.4-1.4 2.9-2.7 6.3-1.4 3.1-1.8 4.5h13.9q1.1-5.2 5.9-14.2z"/>
</svg>