<svg version="1.2" xmlns="http://www.w3.org/2000/svg" viewBox="0 0 96 93" width="96" height="93"><path fill="#fff" d="m9.7 31.8q-0.2 0-0.4-0.1-0.1 0-0.3 0-0.2 0-0.3 0-0.2 0.1-0.4 0.1l-1.5 0.8q-0.2 0.1-0.3 0.2-0.2 0.2-0.3 0.3-0.1 0.2-0.1 0.4-0.1 0.2-0.1 0.4v4.1q0 0.3 0.1 0.5 0 0.2 0.1 0.3 0.2 0.2 0.3 0.4 0.2 0.1 0.4 0.2l18.6 8.6v5.9l-9.4 4.5q-1 0.4-1.8 1.2-0.7 0.8-1.2 1.8-0.4 1-0.5 2.1 0 1.1 0.3 2.1l5.7 17.7q0.4 1.1 1.1 2.1 0.7 1 1.6 1.7 1 0.7 2.1 1 1.2 0.4 2.4 0.4h8.5q1.3 0 2.5-0.3 1.2-0.3 2.4-0.9 1.1-0.6 2.1-1.4 0.9-0.9 1.6-1.9h4.3l10.2 3.8q0.4 0.2 0.9 0.3 0.4 0.1 0.9 0.2 0.5 0.1 0.9 0.2 0.5 0 1 0h8q1.5 0 2.8-0.4 1.4-0.5 2.5-1.3 1.2-0.9 2-2 0.9-1.2 1.3-2.5l3.2-10q0.6-1.8 0.5-3.7-0.1-1.9-0.8-3.6-0.7-1.7-2-3.1-1.3-1.4-3-2.2l-7.3-3.6q-0.3-0.1-0.6-0.3-0.4-0.1-0.7-0.1-0.3-0.1-0.7-0.2-0.3 0-0.6 0h-1.2v-2.7q0-1.5-0.4-2.9l29.7-18.5q0.8 1.1 1.3 2.5 0.6 1.3 0.8 2.7 0.2 1.4 0.1 2.8-0.2 1.4-0.6 2.7v0.1l-26.4 10.3 23.5-1.3-10.8 33.4q-0.6 1.8-1.7 3.4-1.1 1.5-2.7 2.7-1.5 1.1-3.3 1.7-1.9 0.6-3.8 0.6h-44.4q-1.9 0-3.8-0.6-1.8-0.6-3.3-1.7-1.6-1.2-2.7-2.7-1.1-1.6-1.7-3.4l-13.7-42.5q-0.6-1.8-0.6-3.7 0-1.9 0.6-3.8 0.6-1.8 1.7-3.3 1.1-1.6 2.7-2.7l35.9-26.3q1.4-1 3-1.6 1.6-0.6 3.4-0.7 1.7-0.1 3.4 0.3 1.6 0.4 3.1 1.2l-3.6 36.7c-1.3-0.4-2.6-0.7-3.9-0.7h-5.5q-0.8 0-1.5 0.1-0.8 0.1-1.5 0.4-0.8 0.2-1.5 0.5-0.7 0.3-1.3 0.8l-4.5 3zm34.3-27.9h4v88h-4zm-19 30h19v58h-19zm-6-1h6v56h-6zm-3-1h3v53h-3zm-2-1h2v47h-2zm-3-1h3v40h-3zm-6 0h13v13h-13zm60.5 12.3l-4.5-3q-0.6-0.4-1.3-0.8-0.7-0.3-1.4-0.5-0.8-0.3-1.5-0.4-0.8-0.1-1.6-0.1h-5.4c-1.4 0-2.7 0.3-3.9 0.8l-3.7-36.8q1.5-0.8 3.2-1.2 1.7-0.4 3.4-0.3 1.7 0.1 3.3 0.7 1.6 0.6 3 1.6l36 26.3q1.5 1.1 2.6 2.7 1.2 1.5 1.7 3.4 0.6 1.8 0.6 3.7 0 1.9-0.6 3.7l-13.7 42.5q-0.6 1.9-1.7 3.4-1.1 1.6-2.7 2.7-1.5 1.1-3.3 1.7-1.8 0.6-3.7 0.6h-44.5q-1.9 0-3.7-0.6-1.8-0.6-3.4-1.7-1.5-1.1-2.6-2.7-1.2-1.5-1.7-3.4l-10.8-33.4 23.4 1.3-26.3-10.2-0.1-0.2q-0.4-1.3-0.5-2.7-0.1-1.4 0.1-2.8 0.2-1.4 0.7-2.7 0.5-1.3 1.4-2.5l29.6 18.6q-0.4 1.4-0.4 2.8v2.7h-1.1q-0.4 0-0.7 0.1-0.3 0-0.7 0.1-0.3 0.1-0.6 0.2-0.3 0.1-0.7 0.2l-7.2 3.6q-1.7 0.8-3 2.2-1.3 1.4-2.1 3.1-0.7 1.8-0.8 3.7-0.1 1.8 0.5 3.6l3.2 10q0.5 1.3 1.3 2.5 0.8 1.2 2 2 1.2 0.8 2.5 1.3 1.4 0.4 2.8 0.4h8.1q0.4 0 0.9 0 0.5-0.1 0.9-0.1 0.5-0.1 0.9-0.3 0.5-0.1 0.9-0.2l10.3-3.9h4.2q0.7 1.1 1.7 1.9 0.9 0.8 2.1 1.4 1.1 0.6 2.3 0.9 1.3 0.3 2.5 0.3h8.6q1.2 0 2.3-0.3 1.1-0.4 2.1-1.1 0.9-0.7 1.6-1.7 0.7-0.9 1.1-2.1l5.7-17.6q0.4-1.1 0.3-2.2-0.1-1.1-0.5-2.1-0.4-1-1.2-1.8-0.7-0.7-1.7-1.2l-9.5-4.5v-5.9l18.7-8.6q0.2-0.1 0.3-0.2 0.2-0.2 0.3-0.3 0.1-0.2 0.2-0.4 0-0.2 0-0.4v-4.2q0-0.2 0-0.4-0.1-0.2-0.2-0.3-0.1-0.2-0.3-0.4-0.1-0.1-0.3-0.2l-1.5-0.7q-0.1-0.1-0.3-0.2-0.2 0-0.4 0-0.1 0-0.3 0-0.2 0.1-0.3 0.2zm-17.5-38.3h4v88h-4zm4 30h19v58h-19zm19-1h6v56h-6zm6-1h3v53h-3zm3-1h2v47h-2zm2-1h3v40h-3zm-4 0h13v13h-13z"/></svg>
