<svg version="1.2" xmlns="http://www.w3.org/2000/svg" viewBox="0 0 1280 720" width="1280" height="720">
	<style>
		.s0 { opacity: .5;fill: none;stroke: #ffffff } 
	</style>
	<path id="SERVERSTATUS" fill-rule="evenodd" class="s0" d="m1243.3 722.6l33.9-33.9 19.9 20-23.9 23.8c0 0-32.5-7.2-29.9-9.9zm-198 38.2l46.4-46.4 36.5 36.5zm152.5-46.5l20 19.9-46.5 46.5-72.9-73 46.4-46.4 20 19.9-26.6 26.5 6.6 6.6 19.8-19.8 20 19.9-19.8 19.8 6.5 6.6zm53.1-53l19.9 19.9-19.9 20-20-20-6.6 6.6 20 19.9-20 20-72.9-73 36.5-36.5q4-4 9.9-4 6 0 10 4l23.2 23.2q4.1 4.1 4.1 10 0 6-4.1 10 4.1-4 10-4 5.8-0.2 9.9 3.9zm-46.4 6.7l6.6-6.6-13.3-13.3-6.5 6.6zm82.8-76.3l26.5 26.6q4 4 4 9.9 0 6-4 10l-36.5 36.5-19.9-20 26.5-26.5-6.6-6.5-16.5 16.5q-4.1 4-10 4-5.9 0-10-4l-26.5-26.5q-4-4-4-10 0-5.9 4-10l33.9-33.8 19.9 19.9-23.9 23.9 6.6 6.6 16.5-16.6q4.1-4 10-4 6 0 10 4zm-10-23.1l-19.9-19.9 46.4-46.5 6.7 33.2zm-352.9 153.3l26.5-26.6q4-4 10-4 5.9 0 10 4l63 63c0 0-112.2-33.8-109.5-36.4zm89.5-89.6l20 20-13.3 13.2 53 53.1-19.9 19.9-53-53-13.3 13.2-19.9-19.9zm53-53l63 63q4 4 4 9.9 0 6-4 10l-26.5 26.5q-4 4-10 4-5.9 0-10-4l-63-63 20-19.9 53 53 6.6-6.6-53-53zm89.5-16.6l26.5 26.6q4 4 4 9.9 0 6-4 10l-36.5 36.5-19.9-19.9 26.5-26.6-6.6-6.5-16.5 16.5q-4.1 4-10 4-6 0-10-4l-26.5-26.5q-4-4-4-10 0-5.9 4-10l33.8-33.8 20 20-23.9 23.8 6.6 6.6 16.5-16.6q4.1-4 10-4 5.9 0 10 4zm51.3-51.9l26.5 26.6q4.1 4 4.1 9.9 0 6-4.1 10l-36.5 36.5-19.9-19.9 26.5-26.6-6.6-6.5-16.5 16.5q-4 4-10 4-5.9 0-9.9-4l-26.6-26.5q-4-4-4-10 0-5.9 4-10l33.9-33.8 19.9 20-23.9 23.8 6.6 6.6 16.6-16.6q4-4 9.9-4 6 0 10 4zm69.6-36.4l19.9 19.9-46.4 46.5-73-73 46.5-46.5 19.9 20-26.5 26.5 6.6 6.6 19.8-19.9 19.9 20-19.8 19.8 6.6 6.6zm26.5 13.3l-73-72.9 36.5-36.5q4-4 10-4 5.9 0 9.9 4zm-19.8-59.7l6.6-6.6-13.3-13.3-6.5 6.6zm-405.3 285.6l20 20-46.5 46.4-72.9-72.9 46.4-46.5 20 20-26.6 26.5 6.6 6.5 19.8-19.8 20 19.9-19.8 19.9 6.5 6.6zm53.1-53.1l19.9 20-19.9 19.9-20-19.9-6.6 6.5 20 20-20 19.9-72.9-72.9 36.5-36.5q4-4.1 9.9-4.1 6 0 10 4.1l23.2 23.2q4.1 4 4.1 10 0 5.9-4.1 9.9 4.1-4 10-4 5.8-0.1 9.9 3.9zm-46.4 6.7l6.6-6.6-13.3-13.2-6.5 6.6zm46.3-112.8l36.5 36.5 23.2 49.7-19.9 20-49.8-23.3-36.5-36.4 20-20 36.5 36.5 12.2 5.6-5.7-12.2-36.4-36.5zm106 0l20 20-46.5 46.4-73-72.9 46.5-46.5 19.9 20-26.5 26.5 6.6 6.5 19.8-19.8 20 19.9-19.9 19.9 6.6 6.6zm53-53.1l20 20-20 19.9-19.9-19.9-6.6 6.5 20 20-20 19.9-72.9-72.9 36.4-36.5q4.1-4.1 10-4.1 6 0 10 4.1l23.2 23.2q4 4 4 10 0 5.9-4 9.9 4-4 10-4 5.8-0.1 9.8 3.9zm-46.3 6.7l6.6-6.6-13.3-13.2-6.6 6.6zm82.9-76.3l26.5 26.5q4 4 4 10 0 5.9-4 9.9l-36.5 36.5-19.9-19.9 26.5-26.5-6.6-6.6-16.5 16.5q-4.1 4.1-10 4.1-6 0-10-4.1l-26.5-26.5q-4-4-4-9.9 0-6 4-10l33.8-33.8 20 19.9-23.9 23.9 6.6 6.5 16.5-16.5q4.1-4 10-4 5.9 0 10 4zm16.5-89.5l20 19.9-13.3 13.3 53 53-19.9 19.9-53-53-13.3 13.3-19.9-20zm63-43l63 63-20 19.9-13.2-13.3-6.6 6.6 13.3 13.3-20 19.9-63-63q-4-4-4-10 0-5.9 4-9.9l26.5-26.5q4.1-4.1 10-4.1 5.9 0 10 4.1zm3.4 56.4l6.5-6.6-19.9-19.9-6.6 6.5zm39.7-119.4l19.9 20-13.2 13.2 53 53.1-19.9 19.9-53.1-53-13.2 13.2-20-19.9zm69.6 56.4l-63-63 19.9-19.9 53.1 53c0 0-7.3 32.6-10 29.9zm-724.1 438.3l36.4-36.4q4.1-4.1 10-4.1 6 0 10 4.1l23.2 23.2q4 4 4 10c0 3.9-83.6 3.2-83.6 3.2zm135.9-63l26.6 26.6q4 4 4 9.9 0 6-4 10l-36.5 36.5-20-20 26.5-26.5-6.5-6.6-16.6 16.6q-4 4-9.9 4-6 0-10-4l-26.5-26.5q-4.1-4.1-4.1-10 0-5.9 4.1-10l33.8-33.8 19.9 19.9-23.8 23.9 6.6 6.6 16.5-16.6q4-4 10-4 5.9 0 9.9 4zm16.6-89.5l19.9 20-13.2 13.2 53 53-19.9 20-53.1-53-13.2 13.2-20-19.9zm63-43.1l63 63-19.9 20-13.3-13.3-6.5 6.6 13.2 13.2-19.9 20-63-63q-4.1-4.1-4.1-10 0-5.9 4.1-10l26.5-26.5q4-4 10-4 5.9 0 9.9 4zm3.4 56.4l6.6-6.5-19.9-20-6.6 6.6zm39.7-119.4l19.9 19.9-13.3 13.3 53.1 53-20 19.9-53-53-13.3 13.3-19.9-20zm53-53l63 63q4.1 4 4.1 10 0 5.9-4.1 9.9l-26.5 26.6q-4 4-10 4-5.9 0-9.9-4l-63-63.1 19.9-19.9 53 53 6.6-6.5-53-53.1zm89.5-16.5l26.5 26.5q4.1 4 4.1 10 0 5.9-4.1 9.9l-36.5 36.5-19.9-19.9 26.5-26.5-6.6-6.6-16.5 16.5q-4 4.1-10 4.1-5.9 0-9.9-4.1l-26.6-26.5q-4-4-4-9.9 0-6 4-10l33.9-33.9 19.9 20-23.9 23.9 6.6 6.5 16.6-16.5q4-4 9.9-4 6 0 10 4zm51.3-51.9l26.6 26.5q4 4 4 10 0 5.9-4 9.9l-36.5 36.5-20-19.9 26.6-26.5-6.6-6.6-16.6 16.5q-4 4.1-9.9 4.1-6 0-10-4.1l-26.5-26.5q-4.1-4-4.1-9.9 0-6 4.1-10l33.8-33.9 19.9 20-23.8 23.9 6.6 6.5 16.5-16.5q4-4 10-4 5.9 0 9.9 4zm69.6-36.5l20 19.9-46.5 46.5-73-73 46.5-46.4 19.9 19.9-26.5 26.5 6.6 6.6 19.8-19.8 20 19.9-19.9 19.8 6.6 6.6zm53-53l20 19.9-20 20-19.9-20-6.6 6.6 20 19.9-20 20-72.9-73 36.4-36.5q4.1-4 10-4 5.9 0 10 4l23.2 23.2q4 4.1 4 10 0 6-4 10 4-4 10-4 5.8-0.2 9.8 3.9zm-46.3 6.7l6.6-6.6-13.3-13.3-6.6 6.6zm46.4-112.7l36.5 36.4 23.2 49.8-19.9 19.9-49.8-23.2-36.5-36.5 20-19.9 36.5 36.5 12.2 5.6-5.7-12.2-36.5-36.5zm106.1 0l19.9 19.9-46.4 46.5-73-73 46.5-46.4 19.9 19.9-26.5 26.5 6.6 6.6 19.8-19.8 20 19.9-19.9 19.8 6.6 6.6zm26.5 13.4l-73-73 36.5-36.5q4.1-4 10-4 5.9 0 10 4zm-19.9-59.7l6.6-6.6-13.3-13.2-6.5 6.5zm-873.8 649.6l46.4-46.4 20 19.9zm116 10l-63-63 19.9-20 53.1 53.1 6.5-6.6-53-53 19.9-20 63.1 63c2.6 2.7-43.8 49.2-46.5 46.5zm73-126l26.5 26.5q4 4 4 10 0 5.9-4 9.9l-36.5 36.5-19.9-19.9 26.5-26.5-6.6-6.6-16.5 16.5q-4.1 4.1-10 4.1-6 0-10-4.1l-26.5-26.5q-4-4-4-10 0-5.9 4-9.9l33.8-33.9 20 20-23.9 23.8 6.6 6.6 16.5-16.5q4.1-4.1 10-4.1 5.9 0 10 4.1zm50.9-52.4l26.5 26.6q4 4 4 9.9 0 6-4 10l-36.5 36.5-19.9-19.9 26.5-26.6-6.6-6.5-16.5 16.5q-4.1 4-10 4-5.9 0-10-4l-26.5-26.5q-4-4-4-10 0-5.9 4-10l33.8-33.8 20 20-23.9 23.8 6.6 6.6 16.5-16.6q4.1-4 10-4 6 0 10 4zm69.6-36.4l19.9 19.9-46.5 46.5-72.9-73 46.4-46.5 20 20-26.5 26.5 6.5 6.6 19.9-19.9 19.9 20-19.8 19.8 6.5 6.6zm53.1-53.1l19.9 20-19.9 19.9-20-19.9-6.5 6.6 19.9 19.9-19.9 19.9-73-72.9 36.5-36.5q4-4 9.9-4 6 0 10 4l23.2 23.2q4.1 4 4.1 10 0 5.9-4.1 10 4.1-4.1 10-4.1 5.8-0.1 9.9 3.9zm-46.4 6.7l6.6-6.5-13.3-13.3-6.5 6.6zm46.3-112.8l36.5 36.5 23.2 49.8-19.9 19.9-49.8-23.2-36.4-36.5 19.9-20 36.5 36.5 12.2 5.6-5.6-12.2-36.5-36.4zm106 0l20 19.9-46.5 46.5-72.9-73 46.4-46.5 20 20-26.6 26.5 6.6 6.6 19.8-19.9 20 20-19.8 19.8 6.5 6.6zm53.1-53.1l19.9 20-19.9 19.9-20-19.9-6.6 6.6 20 19.9-20 19.9-72.9-72.9 36.5-36.5q4-4 9.9-4 6 0 10 4l23.2 23.2q4.1 4 4.1 10 0 5.9-4.1 10 4.1-4.1 10-4.1 5.8-0.1 9.9 3.9zm-46.4 6.7l6.6-6.5-13.3-13.3-6.5 6.6zm82.8-76.3l26.5 26.5q4 4.1 4 10 0 5.9-4 10l-36.5 36.5-19.9-20 26.5-26.5-6.6-6.6-16.5 16.6q-4.1 4-10 4-5.9 0-10-4l-26.5-26.6q-4-4-4-9.9 0-6 4-10l33.9-33.8 19.9 19.9-23.9 23.9 6.6 6.6 16.5-16.6q4.1-4 10-4 6 0 10 4zm16.5-89.5l20 19.9-13.3 13.3 53.1 53-20 20-53-53.1-13.3 13.3-19.9-20zm63-43l63 63-20 19.9-13.2-13.2-6.6 6.5 13.3 13.3-20 19.9-63-63q-4-4-4-9.9 0-6 4-10l26.5-26.5q4.1-4 10-4 6 0 10 4zm3.4 56.4l6.6-6.6-20-19.9-6.6 6.6zm39.7-119.5l19.9 20-13.2 13.2 53 53.1-19.9 19.9-53.1-53-13.2 13.2-20-19.9zm53.1-53l63 63q4 4 4 9.9 0 6-4 10l-26.5 26.5q-4.1 4.1-10 4.1-5.9 0-10-4.1l-63-63 20-19.9 53 53 6.6-6.6-53.1-53zm89.6-16.5l26.5 26.5q4 4 4 9.9 0 6-4 10l-36.5 36.5-20-19.9 26.6-26.6-6.6-6.5-16.6 16.5q-4 4-9.9 4-6 0-10-4l-26.5-26.5q-4-4-4-10 0-5.9 4-9.9l33.8-33.9 20 20-23.9 23.8 6.6 6.6 16.5-16.5q4-4.1 10-4.1 5.9 0 10 4.1zm77.8-5.5l-36.5 36.5-19.9-19.9 26.5-26.6c17.4 4.8 30.9 9 29.9 10zm-29.9-10c-3.3-0.9-6.8-1.8-10.3-2.8l3.7-3.7zm-23.1 9.9q-4 4.1-10 4.1-5.9 0-9.9-4.1l-26.5-26.5c-1.6-1.5 30.9 6.2 59.2 13.8zm-981 728.9l36.4-36.5q4.1-4.1 10-4.1 5.9 0 10 4.1l23.2 23.2q4 4 4 10c0 3.9-83.6 3.3-83.6 3.3zm99.4-99.5l36.5 36.4 23.3 49.8-20 19.9-49.7-23.2-36.5-36.5 19.9-19.9 36.5 36.5 12.2 5.6-5.6-12.2-36.5-36.5zm106.1 0l19.9 19.9-46.4 46.5-73-73 46.4-46.4 20 19.9-26.5 26.5 6.5 6.6 19.9-19.8 19.9 19.9-19.8 19.8 6.6 6.6zm53-53l19.9 19.9-19.9 20-20-20-6.5 6.6 19.9 19.9-19.9 20-73-73 36.5-36.5q4-4 10-4 5.9 0 9.9 4l23.2 23.3q4.1 4 4.1 9.9 0 6-4.1 10 4.1-4 10-4 5.9-0.1 9.9 3.9zm-46.4 6.7l6.6-6.6-13.2-13.3-6.6 6.6zm82.8-76.3l26.5 26.6q4.1 4 4.1 9.9 0 6-4.1 10l-36.5 36.5-19.9-19.9 26.5-26.6-6.6-6.5-16.5 16.5q-4 4-10 4-5.9 0-9.9-4l-26.6-26.5q-4-4-4-10 0-5.9 4-10l33.9-33.8 19.9 20-23.9 23.8 6.6 6.6 16.6-16.6q4-4 9.9-4 6 0 10 4zm16.6-89.5l19.9 20-13.3 13.2 53.1 53.1-20 19.9-53-53-13.3 13.2-19.9-19.9zm63-43.1l63 63-19.9 20-13.3-13.3-6.6 6.6 13.3 13.2-19.9 20-63.1-63q-4-4.1-4-10 0-5.9 4-10l26.6-26.5q4-4 9.9-4 6 0 10 4zm3.4 56.5l6.6-6.6-20-20-6.5 6.6zm39.6-119.4l20 19.9-13.3 13.3 53 53-19.9 20-53-53.1-13.3 13.3-19.9-20zm53-53l63 63q4 4 4 10 0 5.9-4 9.9l-26.5 26.6q-4 4-10 4-5.9 0-10-4l-63-63 20-20 53 53.1 6.6-6.6-53-53.1zm89.5-16.5l26.5 26.5q4 4 4 10 0 5.9-4 10l-36.5 36.4-19.9-19.9 26.5-26.5-6.6-6.6-16.5 16.6q-4.1 4-10 4-5.9 0-10-4l-26.5-26.6q-4-4-4-9.9 0-6 4-10l33.8-33.8 20 19.9-23.9 23.9 6.6 6.5 16.5-16.5q4.1-4 10-4 6 0 10 4zm51.3-51.9l26.5 26.5q4.1 4 4.1 10 0 5.9-4.1 10l-36.5 36.4-19.9-19.9 26.5-26.5-6.6-6.6-16.5 16.6q-4 4-10 4-5.9 0-9.9-4l-26.6-26.6q-4-4-4-9.9 0-6 4-10l33.9-33.8 19.9 19.9-23.8 23.9 6.5 6.5 16.6-16.5q4-4 9.9-4 6 0 10 4zm69.6-36.5l19.9 19.9-46.4 46.5-73-73 46.5-46.4 19.9 19.9-26.5 26.5 6.6 6.6 19.8-19.8 19.9 19.9-19.8 19.8 6.6 6.6zm53-53l20 19.9-20 20-19.9-20-6.6 6.6 19.9 19.9-19.9 20-73-73 36.5-36.5q4-4 10-4 5.9 0 10 4l23.2 23.3q4 4 4 9.9 0 6-4 10 4-4 10-4 5.8-0.1 9.8 3.9zm-46.3 6.7l6.5-6.6-13.2-13.3-6.6 6.6zm46.4-112.7l36.4 36.5 23.3 49.7-20 19.9-49.7-23.2-36.5-36.5 19.9-19.9 36.5 36.5 12.2 5.6-5.6-12.2-36.5-36.5zm92.8 0.1l-19.8 19.8 6.6 6.6 26.5-26.5 19.9 19.9-46.4 46.5-73-73h39.9l6.5 6.6zm59.8-6.7l-20 20-72.9-73zm-1062.8 758.9l33.9-33.8 19.9 19.9c0 0-56.4 16.6-53.8 13.9zm89.6-89.5l19.9 20-13.3 13.2 53.1 53-20 20-53-53-13.3 13.2-19.9-19.9zm63-43.1l63 63-19.9 19.9-13.3-13.2-6.6 6.6 13.3 13.2-19.9 20-63.1-63q-4-4.1-4-10 0-5.9 4-10l26.6-26.5q4-4 9.9-4 6 0 10 4zm3.4 56.4l6.6-6.5-20-20-6.5 6.6zm39.6-119.4l20 19.9-13.3 13.3 53 53-19.9 19.9-53-53-13.3 13.3-19.9-20zm53-53l63 63q4 4 4 10 0 5.9-4 9.9l-26.5 26.5q-4 4.1-10 4.1-5.9 0-9.9-4.1l-63.1-63 20-19.9 53 53 6.6-6.5-53-53.1zm89.5-16.5l26.5 26.5q4 4 4 10 0 5.9-4 9.9l-36.5 36.5-19.9-19.9 26.5-26.5-6.6-6.6-16.5 16.5q-4.1 4.1-10 4.1-5.9 0-10-4.1l-26.5-26.5q-4-4-4-9.9 0-6 4-10l33.8-33.9 20 20-23.9 23.9 6.6 6.5 16.5-16.5q4.1-4.1 10-4.1 6 0 10 4.1zm50.9-52.3l26.5 26.5q4 4 4 9.9 0 6-4 10l-36.5 36.5-19.9-19.9 26.5-26.6-6.6-6.5-16.5 16.5q-4.1 4-10 4-5.9 0-10-4l-26.5-26.5q-4-4-4-10 0-5.9 4-9.9l33.9-33.9 19.9 20-23.9 23.8 6.6 6.6 16.6-16.5q4-4.1 9.9-4.1 6 0 10 4.1zm69.6-36.5l19.9 19.9-46.4 46.5-73-73 46.4-46.5 20 20-26.5 26.5 6.5 6.6 19.9-19.9 19.9 20-19.8 19.8 6.6 6.6zm53-53l19.9 19.9-19.9 19.9-19.9-19.9-6.6 6.6 19.9 19.9-19.9 19.9-73-72.9 36.5-36.5q4-4 10-4 5.9 0 9.9 4l23.3 23.2q4 4 4 10 0 5.9-4 10 4-4.1 9.9-4.1 5.9-0.1 9.9 4zm-46.4 6.6l6.6-6.5-13.2-13.3-6.6 6.6zm46.3-112.8l36.5 36.5 23.2 49.8-19.9 19.9-49.7-23.2-36.5-36.5 19.9-20 36.5 36.5 12.2 5.7-5.6-12.2-36.5-36.5zm106.1 0l19.9 19.9-46.5 46.5-72.9-73 46.4-46.5 20 20-26.6 26.5 6.6 6.6 19.9-19.9 19.9 20-19.8 19.8 6.5 6.6zm53.1-53l19.9 19.9-19.9 19.9-20-19.9-6.5 6.6 19.9 19.9-19.9 19.9-73-72.9 36.5-36.5q4-4 9.9-4 6 0 10 4l23.2 23.2q4.1 4 4.1 10 0 5.9-4.1 10 4.1-4.1 10-4.1 5.8-0.1 9.9 4zm-46.4 6.6l6.6-6.5-13.3-13.3-6.5 6.6zm82.8-76.3l26.5 26.5q4.1 4.1 4.1 10 0 5.9-4.1 10l-36.5 36.5-19.9-20 26.5-26.5-6.6-6.6-16.5 16.6q-4 4-10 4-5.9 0-10-4l-26.5-26.5q-4-4.1-4-10 0-6 4-10l33.9-33.8 19.9 19.9-23.9 23.9 6.6 6.6 16.6-16.6q4-4 9.9-4 6 0 10 4zm16.5-89.5l20 19.9-13.3 13.3 53.1 53-20 20-53-53.1-13.3 13.3-19.9-19.9zm63-43.1l63 63-19.9 19.9-13.3-13.2-6.6 6.5 13.3 13.3-20 19.9-63-63q-4-4-4-9.9 0-6 4-10l26.6-26.5q4-4 9.9-4 6 0 10 4zm3.4 56.4l6.6-6.6-20-19.9-6.6 6.6zm46.4-86.3l53 53.1-19.9 19.9-53-53zm-967.4 769.1l33.8-33.9 20 20-23.9 23.8c-17.4-4.7-30.9-8.9-29.9-9.9zm29.9 9.9c3.4 1 6.8 1.9 10.4 2.8l-3.8 3.8zm23.1-10q4-4 10-4 5.9 0 9.9 4l26.6 26.6c1.5 1.5-31-6.3-59.3-13.8zm70.9-52.3l26.5 26.5q4 4 4 10 0 5.9-4 9.9l-36.5 36.5-19.9-19.9 26.5-26.5-6.6-6.6-16.5 16.5q-4.1 4.1-10 4.1-6 0-10-4.1l-26.5-26.5q-4-4-4-9.9 0-6 4-10l33.8-33.8 20 19.9-23.9 23.9 6.6 6.5 16.5-16.5q4.1-4 10-4 5.9 0 10 4zm69.6-36.5l19.9 19.9-46.5 46.5-72.9-73 46.4-46.4 20 19.9-26.6 26.5 6.6 6.6 19.9-19.8 19.9 19.9-19.8 19.8 6.5 6.6zm53.1-53l19.9 19.9-19.9 20-20-20-6.5 6.6 19.9 19.9-19.9 20-73-73 36.5-36.5q4-4 9.9-4 6 0 10 4l23.2 23.2q4.1 4.1 4.1 10 0 6-4.1 10 4.1-4 10-4 5.8-0.1 9.9 3.9zm-46.4 6.7l6.6-6.6-13.3-13.3-6.5 6.6zm46.3-112.7l36.5 36.4 23.2 49.8-19.9 19.9-49.8-23.2-36.4-36.5 19.9-19.9 36.5 36.5 12.2 5.6-5.6-12.2-36.5-36.5zm106 0l20 19.9-46.5 46.5-73-73 46.5-46.4 19.9 19.9-26.5 26.5 6.6 6.6 19.8-19.8 20 19.9-19.9 19.8 6.6 6.6zm53.1-53l19.9 19.9-19.9 20-20-20-6.6 6.6 20 19.9-20 20-72.9-73 36.5-36.5q4-4 9.9-4 6 0 10 4l23.2 23.2q4.1 4.1 4.1 10 0 6-4.1 10 4.1-4 10-4 5.8-0.1 9.9 3.9zm-46.4 6.7l6.6-6.6-13.3-13.3-6.6 6.6zm82.9-76.3l26.5 26.6q4 4 4 9.9 0 6-4 10l-36.5 36.5-19.9-20 26.5-26.5-6.6-6.5-16.5 16.5q-4.1 4-10 4-5.9 0-10-4l-26.5-26.5q-4-4-4-10 0-5.9 4-10l33.8-33.8 20 20-23.9 23.8 6.6 6.6 16.5-16.6q4.1-4 10-4 6 0 10 4zm16.5-89.5l20 20-13.3 13.2 53 53.1-19.9 19.9-53-53-13.3 13.2-19.9-19.9zm63-43.1l63 63-20 20-13.2-13.3-6.6 6.6 13.3 13.2-20 20-63-63q-4-4.1-4-10 0-5.9 4-10l26.5-26.5q4.1-4 10-4 5.9 0 10 4zm3.4 56.4l6.5-6.5-19.9-20-6.6 6.6zm39.7-119.4l19.9 19.9-13.2 13.3 53 53-19.9 19.9-53.1-53-13.2 13.3-20-20zm53.1-53l63 63q4 4 4 10 0 5.9-4 9.9l-26.5 26.6q-4.1 4-10 4-5.9 0-10-4l-63-63 20-20 53 53 6.6-6.5-53.1-53.1zm89.6-16.5l26.5 26.5q4 4 4 10 0 5.9-4 10l-36.5 36.4-20-19.9 26.6-26.5-6.6-6.6-16.6 16.6q-4 4-9.9 4-6 0-10-4l-26.5-26.6q-4.1-4-4.1-9.9 0-6 4.1-10l33.8-33.8 20 19.9-23.9 23.9 6.6 6.5 16.5-16.5q4-4 10-4 5.9 0 10 4zm51.3-51.9l26.5 26.5q4 4 4 10 0 5.9-4 9.9l-36.5 36.5-19.9-19.9 26.5-26.5-6.6-6.6-16.5 16.5q-4.1 4.1-10 4.1-5.9 0-10-4.1l-26.5-26.5q-4-4-4-9.9 0-6 4-10l33.9-33.8 19.9 19.9-23.9 23.9 6.6 6.5 16.5-16.5q4.1-4 10-4 6 0 10 4zm56.3-36.4l-19.8 19.8 6.6 6.6 26.5-26.5 19.9 19.9-46.4 46.5-73-73h39.9l6.5 6.6zm59.8-6.7l-20 20-73-73zm-850.5 599.8q4-4 9.9-4 6 0 10 4l26.5 26.5q4 4.1 4 10 0 6-4 10l-36.5 36.5-19.9-20 26.5-26.5-6.6-6.6-16.5 16.6c-2.7 2.7 6.6-46.5 6.6-46.5zm36.4-89.5l20 19.9-13.3 13.3 53.1 53-20 20-53-53.1-13.3 13.3-19.9-19.9zm63-43.1l63 63-19.9 19.9-13.3-13.2-6.6 6.6 13.3 13.2-20 20-63-63q-4-4.1-4-10 0-5.9 4-10l26.6-26.5q4-4 9.9-4 6 0 10 4zm3.4 56.4l6.6-6.5-20-20-6.6 6.6zm39.7-119.4l20 19.9-13.3 13.3 53 53-19.9 19.9-53-53-13.3 13.3-19.9-20zm53-53l63 63q4 4 4 10 0 5.9-4 9.9l-26.5 26.5q-4.1 4.1-10 4.1-5.9 0-10-4.1l-63-63 20-19.9 53 53 6.6-6.5-53.1-53.1zm89.6-16.5l26.5 26.5q4 4 4 10 0 5.9-4 9.9l-36.5 36.5-19.9-19.9 26.5-26.5-6.6-6.6-16.5 16.5q-4.1 4.1-10 4.1-6 0-10-4.1l-26.5-26.5q-4-4-4-10 0-5.9 4-9.9l33.8-33.9 20 20-23.9 23.8 6.6 6.6 16.5-16.5q4.1-4.1 10-4.1 5.9 0 10 4.1zm50.9-52.3l26.5 26.5q4 4 4 9.9 0 6-4 10l-36.5 36.5-19.9-19.9 26.5-26.6-6.6-6.5-16.5 16.5q-4.1 4-10 4-5.9 0-10-4l-26.5-26.5q-4-4-4-10 0-5.9 4-9.9l33.8-33.9 20 20-23.9 23.8 6.6 6.6 16.5-16.5q4.1-4.1 10-4.1 5.9 0 10 4.1zm69.6-36.5l19.9 19.9-46.5 46.5-72.9-73 46.4-46.5 20 20-26.5 26.5 6.5 6.6 19.9-19.9 19.9 20-19.8 19.8 6.5 6.6zm53.1-53.1l19.9 20-19.9 19.9-20-19.9-6.5 6.6 19.9 19.9-19.9 19.9-73-72.9 36.5-36.5q4-4 9.9-4 6 0 10 4l23.2 23.2q4.1 4 4.1 10 0 5.9-4.1 10 4.1-4.1 10-4.1 5.8-0.1 9.9 3.9zm-46.4 6.7l6.6-6.5-13.3-13.3-6.5 6.6zm46.3-112.8l36.5 36.5 23.2 49.8-19.9 19.9-49.8-23.2-36.4-36.5 19.9-20 36.5 36.5 12.2 5.6-5.6-12.1-36.5-36.5zm106 0l20 19.9-46.5 46.5-72.9-73 46.4-46.5 20 20-26.6 26.5 6.6 6.6 19.8-19.9 20 20-19.8 19.8 6.5 6.6zm10-96.1l23.2 23.2q4.1 4 4.1 10 0 5.9-4.1 10 4.1-4.1 10-4.1 5.8-0.1 9.9 3.9l19.9 20-19.9 19.9-20-19.9-6.6 6.6 20 19.9-20 19.9-72.9-72.9 36.5-36.5c2.6-2.7 17.2-2.7 19.9 0zm-3.3 49.7l6.6-6.5-13.3-13.3-6.5 6.6zm109.3-29.8l-36.5 36.5-19.9-20 17.5-17.5c19.7-0.4 40.3-0.5 38.9 1zm-38.9-1c-4.4 0.1-8.6 0.2-12.6 0.3l21.6-9.3zm-14.1 0.9q-4 4.1-10 4.1-5.9 0-9.9-4.1c0 0 9.4-0.3 21.4-0.6zm-644.6 497.9l26.5-26.5 20 20-46.5 46.4zm79.6-79.5l19.9 19.9-19.9 19.9-20-19.9-6.6 6.6 20 19.9-20 20-72.9-73 36.5-36.5q4-4 9.9-4 6 0 10 4l23.2 23.2q4.1 4.1 4.1 10 0 5.9-4.1 10 4.1-4.1 10-4.1 5.8-0.1 9.9 4zm-46.4 6.6l6.6-6.5-13.3-13.3-6.6 6.6zm46.4-112.8l36.5 36.5 23.2 49.8-19.9 19.9-49.8-23.2-36.5-36.5 20-19.9 36.5 36.4 12.2 5.7-5.7-12.2-36.4-36.5zm106 0l20 19.9-46.5 46.5-73-73 46.5-46.5 19.9 20-26.5 26.5 6.6 6.6 19.8-19.9 20 20-19.9 19.8 6.6 6.6zm53-53l20 19.9-20 19.9-19.9-19.9-6.6 6.6 20 19.9-20 20-73-73 36.5-36.5q4.1-4 10-4 5.9 0 10 4l23.2 23.2q4 4.1 4 10 0 5.9-4 10 4-4.1 10-4.1 5.8-0.1 9.8 4zm-46.3 6.6l6.6-6.5-13.3-13.3-6.6 6.6zm82.9-76.3l26.5 26.5q4 4.1 4 10 0 6-4 10l-36.5 36.5-19.9-20 26.5-26.5-6.6-6.6-16.5 16.6q-4.1 4-10 4-6 0-10-4l-26.5-26.5q-4-4.1-4-10 0-5.9 4-10l33.8-33.8 20 19.9-23.9 23.9 6.6 6.6 16.5-16.6q4.1-4 10-4 5.9 0 10 4zm16.5-89.5l20 19.9-13.3 13.3 53 53-19.9 20-53-53.1-13.3 13.3-19.9-19.9zm63-43.1l63 63-20 19.9-13.2-13.2-6.6 6.6 13.2 13.2-19.9 20-63-63q-4-4.1-4-10 0-5.9 4-10l26.5-26.5q4.1-4 10-4 5.9 0 10 4zm3.4 56.4l6.5-6.5-19.9-20-6.6 6.6zm39.7-119.4l19.9 19.9-13.2 13.3 53 53-19.9 19.9-53.1-53-13.2 13.3-20-20zm53.1-53l63 63q4 4 4 10 0 5.9-4 9.9l-26.6 26.5q-4 4.1-9.9 4.1-6 0-10-4.1l-63-63 19.9-19.9 53.1 53 6.6-6.5-53.1-53.1zm116.1 29.9l-36.5 36.5-20-19.9c0 0 59.1-19.3 56.5-16.6zm-560.5 296.1l53 53-19.9 19.9-53.1-53zm46.4-86.2l63 63q4 4 4 9.9 0 6-4 10l-26.5 26.5q-4.1 4.1-10 4.1-5.9 0-10-4.1l-63-63 20-19.9 53 53 6.6-6.6-53.1-53zm89.6-16.5l26.5 26.5q4 4 4 10 0 5.9-4 9.9l-36.5 36.5-20-19.9 26.6-26.5-6.6-6.6-16.6 16.5q-4 4.1-9.9 4.1-6 0-10-4.1l-26.5-26.5q-4-4-4-10 0-5.9 4-9.9l33.8-33.9 20 20-23.9 23.8 6.6 6.6 16.5-16.5q4-4.1 10-4.1 5.9 0 10 4.1zm50.9-52.4l26.5 26.6q4 4 4 9.9 0 6-4 10l-36.5 36.5-19.9-20 26.5-26.5-6.6-6.5-16.5 16.5q-4.1 4-10 4-6 0-10-4l-26.5-26.5q-4-4-4-10 0-5.9 4-10l33.8-33.8 20 19.9-23.9 23.9 6.6 6.6 16.5-16.6q4.1-4 10-4 5.9 0 10 4zm69.5-36.4l20 19.9-46.5 46.5-72.9-73 46.4-46.5 20 20-26.6 26.5 6.6 6.6 19.8-19.9 20 20-19.8 19.8 6.5 6.6zm53.1-53.1l19.9 20-19.9 19.9-20-19.9-6.6 6.6 20 19.9-20 19.9-72.9-72.9 36.5-36.5q4-4.1 9.9-4.1 6 0 10 4.1l23.2 23.2q4.1 4 4.1 10 0 5.9-4.1 9.9 4.1-4 10-4 5.8-0.1 9.9 3.9zm-46.4 6.7l6.6-6.6-13.3-13.2-6.5 6.6zm82.8-76.3l23.2 49.7-19.9 20-49.8-23.2zm-352.9 226.2l26.5-26.6 20 20-46.5 46.4zm79.6-79.5l19.9 19.9-19.9 20-20-20-6.5 6.6 19.9 19.9-19.9 20-73-73 36.5-36.5q4-4 9.9-4 6 0 10 4l23.2 23.3q4.1 4 4.1 9.9 0 6-4.1 10 4.1-4 10-4 5.8-0.1 9.9 3.9zm-46.4 6.7l6.6-6.6-13.3-13.3-6.5 6.6zm82.8-76.2l26.5 26.5q4 4 4 9.9 0 6-4 10l-36.5 36.5-19.9-19.9 26.5-26.6-6.6-6.5-16.5 16.5q-4.1 4-10 4-5.9 0-10-4l-26.5-26.5q-4-4-4-10 0-5.9 4-9.9l33.9-33.9 19.9 20-23.9 23.8 6.6 6.6 16.6-16.5q4-4.1 9.9-4.1 6 0 10 4.1zm23.2-56.4l53.1 53.1-20 19.9-53-53-13.3 13.2-19.9-19.9zm119.3-13.3l-46.4 46.5-63.1-63c-2.6-2.7 109.5 16.5 109.5 16.5zm-198.1 38.3l-36.4 36.5-20-20 26.5-26.5c0 0 32.6 7.3 29.9 10z"/>
</svg>