<svg version="1.2" xmlns="http://www.w3.org/2000/svg" viewBox="0 0 384 216" width="384" height="216"><path d="m0 0h384v216h-384z"/><path fill-rule="evenodd" fill="#fff" d="m98.5 107.7c0-9.7 5.8-16.9 14.1-16.9 6.2 0 11.1 4.1 12.1 10.1h-2.6c-0.9-4.4-4.6-7.7-9.5-7.7-6.6 0-11.5 6.1-11.5 14.5 0 8.3 4.7 14.6 11.5 14.6 4.8 0 8.7-3.1 9.5-7.8h2.7c-1 6-5.8 10.2-12.2 10.2-8.3 0-14.1-7.2-14.1-17zm42.3-16.4h2.6v15.2h3.8l12.5-15.2h3.4l-13 15.7 13.4 17h-3.3l-11.8-15.1h-5v15.1h-2.6zm33.8 16.5c0-9.9 5.8-17 13.9-17 8.1 0 14 7.1 14 17 0 9.8-5.9 16.9-14 16.9-8.1 0-13.9-7.1-13.9-16.9zm25.3 0c0-8.1-4.5-14.6-11.4-14.6-6.8 0-11.4 6.5-11.4 14.6 0 8.1 4.6 14.5 11.4 14.5 6.9 0 11.4-6.4 11.4-14.5zm18.8-16.5h2.5v7.3h0.3c1.6-4.2 4.9-7.8 10.6-7.8 7.9 0 13 7.1 13 16.9 0 9.9-5.2 17-13 17-5.6 0-9.1-3.6-10.6-7.8h-0.2v19.4h-2.6zm13.2 31c6.7 0 10.6-6.3 10.6-14.6 0-8.2-3.9-14.5-10.6-14.5-6.7 0-10.7 6.2-10.7 14.5 0 8.4 4 14.6 10.7 14.6zm27.6-14.5c0-9.9 5.9-17 14-17 8.1 0 14 7.1 14 17 0 9.8-5.9 16.9-14 16.9-8.1 0-14-7.1-14-16.9zm25.4 0c0-8.1-4.6-14.6-11.4-14.6-6.9 0-11.4 6.5-11.4 14.6 0 8.1 4.5 14.5 11.4 14.5 6.9 0 11.4-6.4 11.4-14.5z"/></svg>
