<svg version="1.2" xmlns="http://www.w3.org/2000/svg" viewBox="0 0 384 216" width="384" height="216"><path d="m0 0h384v216h-384z"/><path fill-rule="evenodd" fill="#fff" d="m138.6 99c-1.2-3.6-3.7-5.9-8.2-5.9-4.8 0-8.2 2.7-8.2 6.5 0 3.1 2.1 5.1 6.3 6.2l5.1 1.2c5.1 1.3 7.8 4.2 7.8 8.5 0 5.4-4.8 9.2-11.6 9.2-6.1 0-10.2-3-11.3-8.3l2.5-0.6c0.9 4.2 3.9 6.5 8.8 6.5 5.3 0 8.9-2.8 8.9-6.8 0-3-1.9-5.1-5.8-6.1l-5.2-1.2c-5.4-1.3-8.1-4.3-8.1-8.5 0-5.3 4.5-8.9 10.8-8.9 5.5 0 9 2.7 10.6 7.5zm17.1 8.8c0-9.8 5.9-17 14-17 8.1 0 14 7.2 14 17 0 9.8-5.9 16.9-14 16.9-8.1 0-14-7.1-14-16.9zm25.4 0c0-8.1-4.5-14.5-11.4-14.5-6.8 0-11.4 6.4-11.4 14.5 0 8.1 4.5 14.5 11.4 14.5 6.9 0 11.4-6.4 11.4-14.5zm17 0c0-9.8 5.8-17 13.9-17 8.1 0 14 7.2 14 17 0 9.8-5.9 16.9-14 16.9-8.1 0-13.9-7.1-13.9-16.9zm25.3 0c0-8.1-4.5-14.5-11.4-14.5-6.8 0-11.4 6.4-11.4 14.5 0 8.1 4.6 14.5 11.4 14.5 6.9 0 11.4-6.4 11.4-14.5zm21.4 16.3h-2.6v-32.8h2.5v5.2h0.3c1.5-3.4 5-5.6 9.7-5.6 6.6 0 11.1 4.4 11.1 11.6v21.6h-2.6v-21.5c0-5.6-3.6-9.3-9-9.3-5.5 0-9.4 3.8-9.4 9.5z"/></svg>
